# xmcd
#
# Track frame offsets:
#	150
#	15725
#	31713
#	45766
#	58882
#	72530
#	86404
#	101236
#	114730
#	128200
#	141877
#	155448
#	168716
#	183185
#	195591
#	207453
#	219270
#	234457
#	248698
#	262863
#
# Disc length: 3692 seconds
#
# Revision: 1
# Processed by: cddbd v1.5.2PL0 Copyright (c) Steve Scherf et al.
# Submitted via: audiograbber 1.83.01
#
DISCID=160e6a14
DTITLE=Los Tucanes De Tijuana - Que Te Perdone Tu madre
DYEAR=1900
DGENRE=
TTITLE0=Que Te Perdone Tu madre
TTITLE1=Solo Jugaste
TTITLE2=Por Que Me Enamore De Ti
TTITLE3=Mundo De Amor
TTITLE4=Amor Platonico
TTITLE5=Espejeando
TTITLE6=Desde Que Te Amo
TTITLE7=Nuestro Destino
TTITLE8=Regalo De Dios
TTITLE9=Los Dichos De Lupita
TTITLE10=La Traigo Muerta
TTITLE11=Hotel De Corazon
TTITLE12=El Primer Beso
TTITLE13=Dejate Querer
TTITLE14=Empinando El Codo
TTITLE15=Tus Verdades
TTITLE16=El Gavioton
TTITLE17=El Compositor
TTITLE18=La Chica Del Mercado
TTITLE19=6 Piez Boca Abajo
EXTD=
EXTT0=
EXTT1=
EXTT2=
EXTT3=
EXTT4=
EXTT5=
EXTT6=
EXTT7=
EXTT8=
EXTT9=
EXTT10=
EXTT11=
EXTT12=
EXTT13=
EXTT14=
EXTT15=
EXTT16=
EXTT17=
EXTT18=
EXTT19=
PLAYORDER=
